<?xml version="1.0" encoding="iso-8859-1"?>
<!-- Uploaded to: SVG Repo, www.svgrepo.com, Generator: SVG Repo Mixer Tools -->
<svg height="800px" width="800px" version="1.1" id="Layer_1" xmlns="http://www.w3.org/2000/svg" xmlns:xlink="http://www.w3.org/1999/xlink" 
	 viewBox="0 0 512.001 512.001" xml:space="preserve">
<circle style="fill:#FE5022;" cx="256.316" cy="256.004" r="247.793"/>
<path style="fill:#FF3501;" d="M256.319,8.207c-10.955,0-21.741,0.72-32.321,2.098C345.578,26.143,439.47,130.103,439.47,256
	s-93.892,229.857-215.472,245.696c10.58,1.378,21.366,2.098,32.321,2.098c136.852,0,247.793-110.941,247.793-247.793
	S393.172,8.207,256.319,8.207z"/>
<g>
	<path style="fill:#FFFFFF;" d="M243.906,215.839L210.367,83.245c-2.346-9.276-10.532-16.462-15.711-13.793l-54.989,28.34
		c-5.179,2.669-4.076,13.506,2.117,20.798l88.527,104.255C238.215,232.152,246.9,227.675,243.906,215.839L210.367,83.245
		c-2.346-9.276-10.532-16.462-15.711-13.793l-54.989,28.34c-5.179,2.669-4.076,13.506,2.117,20.798l88.527,104.255
		C238.215,232.152,246.9,227.675,243.906,215.839z"/>
	<path style="fill:#FFFFFF;" d="M217.761,254.492l-81.298-18.077c-5.687-1.265-10.853,3.615-9.915,9.364l9.96,61.054
		c0.938,5.75,7.387,8.734,12.378,5.728l71.338-42.977C226.591,265.748,225.018,256.106,217.761,254.492l-81.298-18.077
		c-5.687-1.265-10.853,3.615-9.915,9.364l9.96,61.054c0.938,5.75,7.387,8.734,12.378,5.728l71.338-42.977
		C226.591,265.748,225.018,256.106,217.761,254.492z"/>
	<path style="fill:#FFFFFF;" d="M242.75,291.902l-42.314,71.733c-2.961,5.018,0.084,11.439,5.843,12.324l61.145,9.395
		c5.758,0.885,10.589-4.327,9.273-10.001l-18.829-81.127C256.183,286.983,246.527,285.5,242.75,291.902l-42.314,71.733
		c-2.961,5.018,0.084,11.439,5.843,12.324l61.145,9.395c5.758,0.885,10.589-4.327,9.273-10.001l-18.829-81.127
		C256.183,286.983,246.527,285.5,242.75,291.902z"/>
	<path style="fill:#FFFFFF;" d="M286.05,279.698l55.146,62.41c3.858,4.365,10.905,3.455,13.526-1.749l27.829-55.248
		c2.621-5.204-0.843-11.408-6.646-11.909l-82.975-7.162C285.523,265.401,281.127,274.127,286.05,279.698l55.146,62.41
		c3.858,4.365,10.905,3.455,13.526-1.749l27.829-55.248c2.621-5.204-0.843-11.408-6.646-11.909l-82.975-7.162
		C285.523,265.401,281.127,274.127,286.05,279.698z"/>
	<path style="fill:#FFFFFF;" d="M287.824,234.745l76.397-33.161c5.345-2.32,6.656-9.304,2.517-13.405l-43.945-43.539
		c-4.139-4.1-11.11-2.725-13.381,2.642l-32.452,76.701C274.064,230.828,281.004,237.705,287.824,234.745l76.397-33.161
		c5.345-2.32,6.656-9.304,2.517-13.405l-43.945-43.539c-4.139-4.1-11.11-2.725-13.381,2.642l-32.452,76.701
		C274.064,230.828,281.004,237.705,287.824,234.745z"/>
</g>
<path d="M256.284,512c-26.21,0.001-52.542-4.072-78.225-12.286c-65.099-20.819-118.193-65.742-149.503-126.495
	C-2.754,312.466-8.532,243.157,12.287,178.06C33.107,112.961,78.03,59.867,138.782,28.556
	C199.537-2.753,268.848-8.53,333.942,12.287c65.099,20.819,118.192,65.742,149.503,126.495
	c31.31,60.752,37.088,130.061,16.27,195.159c-20.819,65.099-65.743,118.193-126.496,149.503
	C336.436,502.402,296.508,511.999,256.284,512z M255.735,16.169c-37.686,0-75.086,8.991-109.549,26.753
	C89.27,72.254,47.184,121.995,27.679,182.982S13.588,308.9,42.92,365.816c29.333,56.915,79.074,99.002,140.061,118.505
	c60.985,19.505,125.918,14.092,182.834-15.241c56.916-29.332,99.002-79.074,118.505-140.06
	c19.503-60.986,14.091-125.918-15.241-182.834l0,0C439.747,89.27,390.007,47.184,329.019,27.68
	C304.962,19.986,280.287,16.169,255.735,16.169z"/>
<path d="M225.714,135.841L225.714,135.841c-5.266,0-9.125,4.956-7.833,10.061l17.948,70.956l-87.884-103.497
	c-2.693-3.171-3.496-6.756-3.497-8.577c0-0.134,0.004-0.257,0.013-0.373l52.807-27.215c1.425,0.868,4.172,3.702,5.266,8.03
	l5.392,21.317c0.907,3.587,4.134,6.099,7.833,6.099l0,0c5.266,0,9.125-4.956,7.833-10.061l-5.392-21.316
	c-2.147-8.486-7.909-15.943-14.68-18.996c-4.32-1.949-8.784-1.947-12.566,0.001l-54.989,28.34c-3.782,1.95-6.372,5.584-7.293,10.234
	c-0.256,1.295-0.381,2.645-0.38,4.026c0,6.392,2.674,13.465,7.333,18.952l88.527,104.255c4.891,5.761,10.095,7.851,14.551,7.851
	c2.315,0,4.43-0.565,6.193-1.473c5.154-2.657,9.659-9.461,6.842-20.595l-18.191-71.919
	C232.641,138.352,229.414,135.841,225.714,135.841z"/>
<path d="M144.637,321.826c-2.332,0-4.669-0.501-6.853-1.51c-4.92-2.276-8.379-6.829-9.251-12.181l-9.96-61.054
	c-0.143-0.878-0.213-1.758-0.213-2.631c-0.001-4.451,1.82-8.746,5.114-11.857c3.941-3.722,9.453-5.24,14.744-4.065l81.298,18.077
	l0,0c6.167,1.371,10.898,6.08,12.331,12.15c0.089,0.378,0.166,0.762,0.228,1.148c0.145,0.893,0.217,1.783,0.218,2.665
	c0,5.658-2.927,10.941-7.9,13.937l-71.339,42.978C150.473,321.038,147.56,321.826,144.637,321.826z M134.517,244.428
	c0,0.014,0.002,0.029,0.006,0.051l9.96,61.054c0.01,0.065,0.013,0.082,0.088,0.115c0.073,0.034,0.087,0.026,0.143-0.008
	l71.34-42.978c0.072-0.044,0.097-0.07,0.097-0.07c-0.005-0.016-0.024-0.133-0.055-0.193c-0.011-0.001-0.042-0.011-0.089-0.022
	l-81.298-18.077c-0.067-0.016-0.081-0.02-0.14,0.039C134.529,244.379,134.517,244.399,134.517,244.428z"/>
<path d="M268.679,393.531c-0.825,0-1.656-0.064-2.485-0.191l-61.145-9.395c-5.358-0.824-9.943-4.239-12.265-9.137
	c-1.053-2.22-1.574-4.606-1.575-6.987c0-2.873,0.76-5.738,2.266-8.291l42.314-71.733l0,0c0.058-0.099,0.116-0.197,0.177-0.293
	c0.437-0.707,0.921-1.373,1.447-1.993v-0.001c0.001-0.001,0.002-0.002,0.002-0.002c2.997-3.537,7.331-5.613,11.959-5.734
	c0.964-0.029,1.938,0.034,2.917,0.183c0.01,0.001,0.018,0.003,0.027,0.004c6.632,1.019,11.897,5.902,13.415,12.438l18.83,81.128
	c0.286,1.227,0.424,2.467,0.424,3.699c-0.001,4.066-1.523,8.032-4.353,11.083C277.521,391.666,273.183,393.531,268.679,393.531z
	 M207.365,367.813c0,0.018,0.008,0.039,0.023,0.071c0.036,0.074,0.053,0.078,0.116,0.087l61.144,9.395
	c0.068,0.01,0.081,0.013,0.137-0.047c0.036-0.039,0.047-0.059,0.047-0.084c0-0.016-0.004-0.032-0.01-0.057l-18.83-81.128
	c-0.019-0.082-0.037-0.113-0.037-0.113v-0.001c-0.017,0-0.135-0.016-0.199-0.006c-0.004,0.011-0.024,0.036-0.047,0.077
	l-42.314,71.733C207.375,367.771,207.365,367.791,207.365,367.813z"/>
<path d="M347.36,352.971c-4.643,0-9.097-1.98-12.218-5.513l-55.147-62.412c-4.088-4.625-5.193-11.02-2.994-16.681
	c0.191-0.492,0.407-0.979,0.65-1.46c3.019-5.993,9.292-9.48,15.974-8.916l82.975,7.161c5.403,0.468,10.204,3.571,12.845,8.305
	c1.377,2.468,2.07,5.204,2.071,7.943c0.001,2.513-0.58,5.03-1.746,7.347l-27.829,55.248c-2.438,4.841-7.104,8.147-12.479,8.842
	C348.758,352.927,348.056,352.971,347.36,352.971z M292.105,274.348l55.147,62.412c0.044,0.051,0.057,0.067,0.136,0.051
	c0.082-0.011,0.088-0.024,0.118-0.084l27.829-55.248c0.016-0.03,0.024-0.049,0.024-0.069c0-0.019-0.009-0.041-0.027-0.075
	c-0.041-0.072-0.058-0.073-0.124-0.08l-82.973-7.16c-0.087-0.01-0.12-0.001-0.12-0.001c-0.005,0.017-0.059,0.122-0.068,0.189
	C292.055,274.285,292.073,274.311,292.105,274.348L292.105,274.348L292.105,274.348z"/>
<path d="M284.517,243.519c-1.704,0-3.394-0.268-5.01-0.795c-2.372-0.772-4.584-2.099-6.446-3.944
	c-3.17-3.142-4.846-7.309-4.845-11.567c0.001-2.144,0.428-4.311,1.304-6.38l32.451-76.701c2.113-4.992,6.548-8.598,11.867-9.649
	c5.32-1.051,10.793,0.602,14.643,4.418l43.945,43.538c3.124,3.096,4.834,7.274,4.833,11.587c0,1.002-0.093,2.01-0.282,3.014
	c-1.001,5.328-4.566,9.798-9.539,11.955l-76.397,33.161l0,0c-0.054,0.023-0.108,0.046-0.16,0.069
	C288.818,243.096,286.656,243.519,284.517,243.519z M284.365,227.245c0.014,0.01,0.098,0.092,0.157,0.122
	c0.01-0.005,0.04-0.016,0.084-0.034l76.397-33.161c0.061-0.026,0.075-0.032,0.091-0.113c0.004-0.022,0.006-0.038,0.006-0.052
	c0-0.038-0.016-0.054-0.05-0.087l-43.945-43.538c-0.047-0.047-0.055-0.058-0.14-0.043c-0.081,0.017-0.087,0.032-0.112,0.093
	l-32.451,76.7C284.37,227.209,284.365,227.244,284.365,227.245z"/>
</svg>